PathFileType	3	(X/Y/Z)	D:\minhoCalibration\240510\subject2_KPNP\preferred\preferred03.trc
DataRate	CameraRate	NumFrames	NumMarkers	Units	OrigDataRate	OrigDataStartFrame	OrigNumFrames
200.0	200.0	15	10	mm	200.0	290	186	
Frame#	Time	Left_Ankle_Outer1			Left_Ankle_Inner1			Left_Knee_Outer1			Left_Knee_Inner1			Left_Wrist1			Right_Wrist1			Right_Knee_Inner1			Right_Knee_Outer1			Right_Ankle_Inner1			Right_Ankle_Outer1			
		X1	Y1	Z1	X2	Y2	Z2	X3	Y3	Z3	X4	Y4	Z4	X5	Y5	Z5	X6	Y6	Z6	X7	Y7	Z7	X8	Y8	Z8	X9	Y9	Z9	X10	Y10	Z10	
290	1.44	-569.31042	86.152977	-750.85455	-589.11658	88.669006	-697.1051	-373.13422	500.62036	-701.65753	-460.20798	485.57056	-642.08514	-475.65582	919.32361	-832.17743	-799.07361	963.16034	-925.24023	-858.44952	457.90518	-955.36896	-912.98322	507.84021	-1016.4352	-812.07257	121.2125	-1175.8811	-881.58398	151.64601	-1237.4531
291	1.445	-567.71704	86.179962	-750.33075	-587.95813	89.048592	-697.07739	-370.77399	501.24109	-698.52832	-458.23911	486.19092	-640.93146	-472.03915	919.85468	-830.3382	-796.51593	964.65918	-920.24194	-857.69177	454.84586	-955.54254	-917.94507	510.75919	-1006.2883	-813.04193	126.59706	-1171.4279	-882.11426	157.65683	-1232.8944
292	1.45	-566.37958	86.950264	-750.88263	-587.1098	89.322258	-697.73822	-368.63168	502.10892	-696.27997	-456.16821	487.15784	-639.80725	-468.17593	920.87335	-828.59467	-793.80029	966.16748	-913.23535	-868.71631	461.43732	-936.6488	-923.64575	513.71802	-995.42505	-814.45844	132.45512	-1166.3501	-883.21124	164.20036	-1227.7036
293	1.455	-565.36176	87.332146	-751.17957	-586.02563	89.936218	-697.70325	-366.5817	502.91006	-694.97772	-454.01895	487.37021	-640.08807	-463.96811	922.42456	-827.01477	-790.78308	967.9176	-906.64514	-874.56403	463.75519	-925.76172	-929.33325	517.74402	-983.23657	-816.23724	139.00833	-1160.4736	-884.65533	171.39597	-1221.8151
294	1.46	-564.57458	87.439484	-751.92316	-585.47028	90.226509	-698.69843	-364.78641	503.34979	-694.44696	-451.23068	488.18469	-639.85101	-459.47955	924.52405	-825.20795	-787.70648	969.33221	-897.8808	-875.11615	461.92233	-922.69189	-935.39807	521.81	-971.55219	-818.67786	146.1266	-1153.8033	-886.75537	178.87123	-1214.9229
295	1.465	-563.85028	87.29496	-752.89539	-585.05609	90.478188	-699.6842	-362.78485	503.5892	-694.7533	-448.01981	489.147	-638.89484	-455.04953	927.00275	-823.78058	-784.08185	970.88696	-890.84216	-882.40179	465.89346	-908.71973	-941.35919	526.17114	-957.39508	-821.56262	153.69662	-1146.412	-889.15558	187.77522	-1207.6357
296	1.47	-563.24121	87.02961	-753.93933	-584.71564	90.53685	-700.8266	-361.15433	503.13379	-695.55719	-444.74396	490.00909	-636.99554	-449.88727	929.68756	-821.97119	-780.11481	972.9729	-883.98022	-888.48804	469.90262	-894.8916	-946.66791	530.59015	-944.10034	-824.99017	161.61127	-1138.4756	-892.07343	197.01357	-1199.4077
297	1.475	-562.90375	86.828987	-754.65204	-584.41797	90.591225	-701.685	-359.29498	502.32346	-696.71765	-441.31436	489.17075	-636.9436	-444.23926	932.81067	-819.93378	-776.07159	974.93036	-875.46198	-899.31421	478.42535	-871.65497	-951.39447	535.95044	-930.19098	-828.76996	170.17154	-1130.0836	-895.15863	207.08688	-1190.67
298	1.48	-562.44031	86.711311	-755.3233	-583.98114	90.634369	-702.47943	-357.46268	501.28531	-698.14062	-437.99335	487.90921	-637.12732	-439.28857	935.70795	-818.3916	-771.93719	976.86139	-868.68915	-904.6767	483.37558	-856.46582	-955.81995	541.43945	-914.84955	-832.64154	179.22264	-1121.3778	-898.71136	217.87448	-1181.2833
299	1.485	-561.60107	86.71003	-755.6405	-583.45697	90.664948	-703.10431	-355.31522	500.08755	-699.57587	-434.91586	486.62897	-637.55145	-434.12207	938.53998	-817.0672	-767.6087	979.17432	-860.43231	-909.40521	488.67056	-840.14105	-959.65936	546.95642	-898.29437	-836.48059	189.08557	-1112.088	-902.4632	229.07997	-1171.374
300	1.49	-561.15253	86.592361	-756.01166	-583.09027	91.047562	-703.414	-353.33102	498.88522	-700.86267	-432.09213	485.44534	-638.28857	-428.11713	941.54858	-815.56219	-763.15527	981.40228	-852.67767	-913.12915	494.23584	-823.40698	-962.36493	553.58789	-882.41028	-839.89734	199.35132	-1102.5037	-906.20312	240.85179	-1160.7463
301	1.495	-560.77423	86.96064	-756.84442	-582.52002	91.17244	-704.00165	-350.9696	497.82623	-702.24207	-429.61295	484.55237	-639.30493	-423.89908	944.47577	-814.88971	-758.70898	983.75574	-844.98621	-916.17877	500.49573	-805.89148	-964.72571	560.02301	-864.82275	-843.22485	210.11708	-1092.2854	-909.80713	252.96822	-1149.8181
302	1.5	-560.37195	87.036217	-757.2218	-582.03326	91.362793	-704.51886	-348.78339	496.70239	-703.42657	-427.46664	484.0246	-640.42029	-418.33707	947.00037	-815.28986	-754.32727	986.25055	-837.14716	-917.9621	506.68161	-787.97137	-966.23792	566.50867	-847.07971	-846.67328	221.83356	-1081.4236	-913.13196	265.97934	-1138.5778
303	1.505	-560.11621	87.025856	-757.68109	-581.72046	91.592796	-705.01825	-346.62766	495.81628	-704.73029	-425.50961	483.61569	-642.05902	-413.06985	949.76923	-815.18427	-749.79614	988.89709	-830.25043	-918.81006	513.28387	-769.85046	-967.35852	573.29724	-828.56024	-848.71039	234.00418	-1071.4025	-916.22418	279.58221	-1127.0323
304	1.51	-559.87805	87.073563	-758.13739	-581.76917	92.714325	-704.02289	-344.595	494.90869	-706.34509	-423.64041	483.3248	-643.93463	-407.64777	952.45459	-815.52948	-745.31519	991.65216	-822.02228	-918.6803	519.97363	-751.45599	-967.89105	580.31848	-809.67542	-850.98517	247.51031	-1061.1788	-918.7644	293.93494	-1115.2697
